<svg width="504" height="510" viewBox="0 0 504 510" fill="none" xmlns="http://www.w3.org/2000/svg">
<path fill-rule="evenodd" clip-rule="evenodd" d="M432.508 78.0424C490.554 133.153 506.767 215.342 502.505 295.251C498.422 371.82 475.612 453.258 410.35 493.499C349.642 530.932 276.832 494.314 207.603 477.09C137.542 459.658 53.7713 458.906 18.3794 395.977C-19.2169 329.127 7.45405 247.969 39.5954 178.358C73.9949 103.856 118.745 26.6904 198.263 6.38861C281.484 -14.8588 370.205 18.8889 432.508 78.0424Z" fill="#64FCD9"/>
<path d="M204 425.5C204.4 424.3 201.833 424.667 200.5 425C201 425.167 200.9 425.7 196.5 426.5C183 428 187.5 435 186.5 441.5C185.5 448 179 449.5 171.5 449C164 448.5 160 462 160 471.5C160 481 164 490 191.5 493.5C254.5 500.5 273.5 485 273.5 483.5C273.5 482 272.5 479.5 275.5 470.5C278.5 461.5 265.5 454 257.5 452C249.5 450 255 448 253 438C251 428 236.5 427 235 428C233.5 429 203.5 427 204 425.5Z" fill="white"/>
<path d="M302.379 49.5987C305.304 48.961 308.298 50.0897 311.053 51.2634C363.77 73.725 404.903 121.708 419.045 177.238C433.186 232.769 420.013 294.581 384.46 339.522C348.907 384.462 291.785 411.505 234.491 410.522C233.326 417.177 232.162 423.832 230.997 430.486C230.995 424.846 230.905 418.877 227.946 414.076C224.987 409.275 218.054 406.462 213.522 409.819C207.33 417.214 212.115 430.614 221.591 432.414C219.737 436.76 212.591 435.406 210.188 431.337C207.786 427.268 208.332 422.201 207.961 417.491C207.591 412.78 205.417 407.363 200.783 406.439C187.026 403.695 173.533 399.631 160.55 394.32C152.147 390.883 142.462 384.133 144.432 375.271C145.886 368.725 153.631 365.219 160.279 366.1C166.927 366.98 172.661 371.034 178.094 374.965C180.928 365.172 183.762 355.378 186.596 345.585C177.676 345.999 175.172 332.93 167.657 328.108C133.271 306.048 110.349 267.055 107.796 226.282C105.244 185.508 123.124 143.961 154.49 117.785C185.856 91.6089 229.931 81.4506 269.59 91.2572C274.296 85.4687 283.093 83.4642 289.842 86.6425C296.152 83.4227 295.829 74.4912 295.037 67.4515C294.244 60.4118 295.457 51.1075 302.379 49.5987ZM191.093 378.089C188.496 375.212 191.044 376.913 191.044 376.913L191.093 378.413V379.099C191.093 379.099 184.796 376.662 181.772 375.675C233.494 393.147 293.684 382.983 336.801 349.496C379.919 316.01 404.665 260.209 400.541 205.772C396.416 151.334 363.544 99.899 315.874 73.2915C314.737 72.6569 313.463 72.0148 312.191 72.291C310.556 72.6457 309.628 74.3303 308.91 75.8407C306.517 80.874 304.124 85.9072 301.732 90.9405C307.369 94.2505 310.38 101.48 308.761 107.813C341.02 128.259 363.483 163.484 368.416 201.357C373.348 239.229 360.655 279.032 334.709 307.059C308.763 335.085 270.054 350.802 231.914 348.799C222.976 348.33 213.348 347.092 205.646 351.652C196.74 356.924 193.541 368.034 191.093 378.089Z" fill="white"/>
<path d="M178.04 143.172C177.314 143.182 177 144.081 176.884 144.797C176.441 147.522 175.999 150.248 175.556 152.973C178.963 152.903 182.804 152.639 185.02 150.051C181.968 149.537 179.686 146.238 180.282 143.201C181.368 144.878 182.835 146.306 184.54 147.346C185.389 147.864 186.371 148.37 186.703 149.308C187.252 150.859 185.708 152.292 184.361 153.236C183.014 154.18 181.508 155.685 182.144 157.202C180.898 155.766 179.074 154.846 177.179 154.698C176.094 154.613 174.894 154.74 174.026 154.083C172.627 153.024 173.105 150.822 173.878 149.247C174.651 147.672 175.592 145.805 174.724 144.28C174.075 143.139 172.556 142.576 172.214 141.308C171.715 139.46 174.004 138.171 175.859 137.697C177.149 137.368 178.508 137.075 179.801 137.396C181.093 137.717 182.285 138.839 182.237 140.17C181.622 141.894 179.87 143.147 178.04 143.172ZM181.065 139.643C179.213 138.595 176.744 138.762 175.05 140.05C174.493 140.472 173.986 141.213 174.323 141.825C176.737 141.979 179.199 141.182 181.065 139.643Z" fill="black"/>
<path d="M311.897 240.471C311.082 240.148 310.358 239.598 309.83 238.899C311.798 238.039 313.411 236.398 314.238 234.416C314.764 233.156 316.646 233.133 317.777 233.899C318.909 234.664 319.615 235.915 320.644 236.813C321.674 237.711 323.389 238.161 324.332 237.173C325.432 236.021 327.568 236.95 328.127 238.441C328.686 239.932 328.195 241.589 327.702 243.104C327.416 243.984 327.103 244.905 326.418 245.528C325.734 246.15 324.552 246.329 323.919 245.654C321.434 243.004 316.474 243.434 314.483 246.471C312.491 245.272 311.401 242.742 311.897 240.471ZM315.491 236.384C313.712 238.181 313.109 241.046 314.012 243.408C314.22 243.952 314.917 244.531 315.277 244.073C316.929 241.97 319.941 241.049 322.487 241.87C322.969 242.025 323.397 241.389 323.26 240.902C323.122 240.415 322.667 240.098 322.242 239.823C320.424 238.641 318.605 237.459 316.787 236.277C316.576 236.14 316.342 235.997 316.091 236.022C315.854 236.045 315.659 236.214 315.491 236.384ZM325.284 244.954C326.026 243.249 326.529 241.44 326.774 239.596C326.828 239.188 326.627 238.576 326.247 238.733C323.997 239.774 323.454 243.281 325.284 244.954Z" fill="black"/>
<path d="M255.257 241.497C251.878 238.899 247.598 236.816 246.189 232.793C243.793 225.953 236.192 222.378 232.43 216.183C229.253 210.952 229.157 204.402 230.106 198.356C232.483 183.209 241.847 168.479 256.188 163.057C263.032 160.47 270.501 160.109 277.817 160.184C284.113 160.249 290.622 160.67 296.231 163.531C301.84 166.392 306.343 172.28 305.753 178.549C305.515 181.072 304.49 183.491 304.443 186.025C304.314 192.966 311.114 197.752 317.126 201.223C322.924 204.571 328.722 207.919 334.521 211.267C337.512 212.995 337.922 217.071 337.985 220.525C338.157 229.972 338.329 239.419 338.501 248.867C338.535 250.755 338.566 252.672 338.079 254.496C337.553 256.465 336.45 258.222 335.363 259.946C324.526 277.127 312.766 295.156 294.48 304.002C290.477 305.938 286.256 307.378 282.047 308.813C278.113 310.153 274.18 311.494 270.247 312.835C267.342 313.825 264.346 314.829 261.282 314.655C258.217 314.481 255.027 312.842 253.951 309.967C253.326 308.298 253.476 306.446 253.737 304.683C254.626 298.681 256.716 292.859 259.847 287.662C264.215 280.409 266.841 271.951 266.333 263.499C265.824 255.048 261.97 246.658 255.257 241.497ZM241.795 221.469C249.937 229.042 257.172 237.59 263.295 246.872C265.405 250.069 267.402 253.396 268.527 257.057C270.708 264.156 269.411 271.901 266.891 278.887C264.37 285.873 260.675 292.375 257.877 299.254C256.327 303.064 255.368 308.162 258.621 310.678C261.297 312.748 265.14 311.674 268.318 310.512C273.084 308.77 277.851 307.028 282.618 305.286C286.573 303.84 290.54 302.39 294.295 300.484C311.457 291.774 322.446 274.654 332.61 258.311C333.53 256.831 334.461 255.327 334.939 253.651C335.436 251.908 335.418 250.066 335.397 248.254C335.303 240.262 335.208 232.271 335.114 224.279C335.081 221.467 335.021 218.542 333.749 216.034C331.481 211.561 326.191 209.755 321.641 207.646C314.814 204.483 308.707 199.778 303.906 193.985C302.668 192.491 301.484 190.857 301.103 188.955C300.426 185.574 302.403 182.251 302.697 178.816C303.178 173.19 298.933 168.011 293.813 165.629C288.694 163.247 282.859 163.073 277.212 163.028C271.86 162.986 266.439 163.03 261.26 164.382C245.836 168.408 235.281 183.785 233.017 199.564C232.375 204.041 232.327 208.803 234.328 212.858C236.019 216.286 238.996 218.866 241.795 221.469Z" fill="black"/>
<path d="M167.539 460.05C173.556 463.708 180.703 464.922 187.673 465.919C198.76 467.505 209.9 468.723 221.068 469.569C235.455 470.66 250.77 470.931 263.284 463.749C264.209 463.218 265.152 462.608 265.658 461.669C267.193 458.818 263.689 455.731 260.501 455.161C257.313 454.591 253.629 454.917 251.299 452.668C255.991 450.337 261.896 450.658 266.308 453.483C270.72 456.308 273.482 461.536 273.328 466.773C273.202 471.066 271.273 475.2 271.473 479.49C271.716 484.724 266.381 488.357 261.511 490.29C246.033 496.436 228.91 496.595 212.258 496.35C197.504 496.134 182.18 495.526 169.069 488.756C165.772 487.054 162.551 484.86 160.728 481.628C159.091 478.726 158.749 475.297 158.44 471.981C157.819 465.311 157.428 457.852 161.724 452.712C165.821 447.812 172.819 446.699 179.19 446.238C182.266 446.016 183.348 441.932 182.786 438.899C182.224 435.866 180.885 432.635 182.205 429.848C184.841 424.283 193.996 427.019 198.701 423.046C200.263 421.728 202.773 424.075 202.166 426.027C201.56 427.978 199.266 428.891 197.222 428.929C195.179 428.968 193.144 428.405 191.109 428.592C189.073 428.778 186.877 430.079 186.705 432.115C205.465 439.644 226.648 440.989 246.21 435.895C242.843 431.773 237.45 429.391 232.136 429.679C232.222 428.367 233.689 427.626 234.981 427.387C240.837 426.304 246.866 430.401 249.109 435.918C251.352 441.435 250.301 447.885 247.504 453.143C244.962 452.351 245.163 448.756 245.573 446.125C245.984 443.493 244.902 439.693 242.287 440.2C224.418 443.662 205.642 442.317 188.449 436.346C187.136 435.89 186.302 437.735 186.142 439.115C185.543 444.274 185.237 450.282 189.05 453.808C190.922 455.539 193.468 456.309 195.94 456.934C209.376 460.326 223.507 460.938 237.186 458.721C239.101 458.411 241.54 458.28 242.475 459.98C232.11 464.679 220.167 463.609 208.847 462.447C203.497 461.897 198.04 461.32 193.133 459.116C188.349 456.966 184.301 453.357 179.41 451.464C174.518 449.571 167.965 450.063 165.298 454.579C165.004 455.077 164.763 455.623 164.722 456.2C164.601 457.872 166.107 459.179 167.539 460.05ZM268.254 480.701C270.432 475.83 268.426 470.242 267.783 464.945C252.92 475.095 233.375 474.219 215.475 472.341C205.097 471.253 194.741 469.96 184.414 468.464C177.717 467.494 170.682 466.288 165.447 462C164.042 460.849 162.479 463.261 162.247 465.063C161.57 470.302 160.982 476.001 163.704 480.529C166.688 485.494 172.747 487.561 178.371 488.947C203.124 495.051 229.322 495.206 254.146 489.397C259.729 488.09 265.913 485.936 268.254 480.701Z" fill="black"/>
<path d="M298.844 48.5987C301.77 47.961 304.764 49.0897 307.518 50.2634C360.236 72.725 401.369 120.708 415.51 176.238C429.651 231.769 416.478 293.581 380.926 338.522C345.373 383.462 288.251 410.505 230.956 409.522C229.792 416.177 228.627 422.832 227.462 429.486C227.461 423.846 227.371 417.877 224.412 413.076C221.453 408.275 214.519 405.462 209.987 408.819C203.795 416.214 208.581 429.614 218.056 431.414C216.203 435.76 209.056 434.406 206.654 430.337C204.252 426.268 204.797 421.201 204.427 416.491C204.056 411.78 201.882 406.363 197.248 405.439C183.492 402.695 169.999 398.631 157.015 393.32C148.613 389.883 138.928 383.133 140.897 374.271C142.351 367.725 150.097 364.219 156.744 365.1C163.392 365.98 169.126 370.034 174.559 373.965C177.393 364.172 180.227 354.378 183.061 344.585C174.142 344.999 171.638 331.93 164.122 327.108C129.736 305.048 106.814 266.055 104.261 225.282C101.709 184.508 119.589 142.961 150.955 116.785C182.321 90.6089 226.397 80.4506 266.056 90.2572C270.761 84.4687 279.558 82.4642 286.307 85.6425C292.617 82.4227 292.295 73.4912 291.502 66.4515C290.709 59.4118 291.922 50.1075 298.844 48.5987V48.5987ZM354.121 261.898C369.581 221.273 362.312 172.812 335.614 138.51C333.68 136.025 331.495 133.5 328.508 132.502C321.761 130.247 315.014 127.992 308.267 125.737C308.999 128.582 306.723 131.503 303.975 132.543C301.227 133.584 298.174 133.231 295.259 132.86C290.068 132.199 284.708 131.47 280.225 128.77C275.741 126.07 272.342 120.843 273.428 115.723C274.295 111.633 269.282 109.011 265.254 107.888C254.739 104.957 244.224 102.026 233.709 99.095C231.416 98.456 228.964 97.7135 227.5 95.8381C226.035 93.9626 226.324 90.5981 228.578 89.8355C210.956 90.3064 193.455 94.8327 177.815 102.964C190.284 109.427 202.99 116.064 212.751 126.161C220.407 134.08 226.163 144.696 225.234 155.672C224.43 165.182 218.631 173.782 211.077 179.616C203.524 185.45 194.343 188.805 185.087 191.131C171.43 194.564 154.886 195.104 145.489 184.616C142.756 181.565 137.871 182.356 133.909 183.398C127.225 185.155 120.54 186.913 113.855 188.67C112.298 189.08 110.414 189.875 110.361 191.483C110.201 196.361 113.816 201.103 118.562 202.239C123.309 203.376 128.68 200.786 130.746 196.365C131.991 193.701 135.744 193.285 138.493 194.328C141.243 195.371 143.518 197.416 146.253 198.496C150.587 200.208 155.676 199.349 159.869 201.385C166.862 204.779 168.053 214.304 166.719 221.962C164.244 236.175 156.185 249.34 144.652 258.009C137.084 263.698 138.398 275.489 142.206 284.157C146.015 292.825 151.678 301.54 150.356 310.915C145.163 300.056 140.765 288.816 137.21 277.316C135.249 270.972 134.126 262.738 139.534 258.885C151.025 250.699 159.55 238.44 163.227 224.819C165.431 216.655 164.335 205.506 156.242 203.052C153.106 202.101 149.637 202.807 146.521 201.788C143.913 200.934 141.823 198.959 139.318 197.836C136.813 196.714 133.287 196.81 131.965 199.216C127.462 207.411 113.639 207.747 108.743 199.779C103.058 240.373 118.434 283.342 148.582 311.114C178.731 338.885 222.816 350.688 262.807 341.697C302.798 332.705 337.587 303.166 352.946 265.163C348.679 263.261 346.261 258.544 345.637 253.914C345.013 249.283 345.846 244.6 346.307 239.95C347.236 230.599 346.653 221.1 344.589 211.933C344.034 209.468 342.945 206.598 340.471 206.087C333.043 204.553 325.994 201.215 320.102 196.44C315.626 192.812 311.869 185.622 316.224 181.851C318.254 180.094 315.374 177.2 314.325 174.73C312.11 169.513 318.891 165.229 324.312 163.575C330.667 161.637 337.022 159.698 343.378 157.759C344.064 157.55 344.79 157.339 345.487 157.509C347.513 158.003 347.37 161.274 345.666 162.476C343.961 163.677 341.687 163.482 339.602 163.433C331.31 163.236 322.982 166.27 316.761 171.756C319.528 174.816 320.241 179.571 318.492 183.308C316.386 187.807 319.375 193.266 323.506 196.023C327.638 198.781 332.679 199.722 337.316 201.503C341.953 203.284 346.627 206.448 347.75 211.287C350.024 221.091 350.519 231.304 349.203 241.281C348.21 248.811 347.28 258.597 354.121 261.898ZM187.558 377.089C184.961 374.212 185.603 369.65 187.222 366.128C188.841 362.607 191.288 359.382 191.973 355.568C192.658 351.753 190.591 346.993 186.726 346.696C183.897 356.023 181.067 365.349 178.237 374.675C229.959 392.147 290.15 381.983 333.267 348.496C376.384 315.01 401.131 259.209 397.006 204.772C392.882 150.334 360.01 98.899 312.339 72.2915C311.202 71.6569 309.928 71.0148 308.656 71.291C307.022 71.6457 306.094 73.3303 305.375 74.8407C302.983 79.874 300.59 84.9072 298.197 89.9405C303.834 93.2505 306.846 100.48 305.226 106.813C337.485 127.259 359.949 162.484 364.881 200.357C369.813 238.229 357.121 278.032 331.174 306.059C305.228 334.085 266.52 349.802 228.38 347.799C219.441 347.33 209.813 346.092 202.111 350.652C193.206 355.924 190.007 367.034 187.558 377.089H187.558ZM309.333 54.6746C306.392 53.363 303.192 52.1026 300.033 52.729C296.874 53.3555 294.068 56.7028 295.218 59.7108C350.6 82.3206 391.943 136.193 399.455 195.538C406.968 254.884 380.354 317.359 332.353 353.056C284.353 388.753 216.862 396.263 162.189 371.99C156.879 369.633 149.629 367.428 146.126 372.063C143.97 374.916 144.692 379.18 146.867 382.02C149.041 384.859 152.337 386.583 155.565 388.122C213.889 415.916 286.954 409.83 339.876 372.771C392.798 335.711 423.501 269.132 417.326 204.82C411.151 140.508 368.34 80.987 309.333 54.6746ZM112.665 186.092C119.47 184.234 126.276 182.376 133.081 180.518C137.775 179.236 143.587 178.254 146.829 181.882C152.063 187.741 160.17 190.422 168.025 190.571C175.881 190.72 183.596 188.604 191.068 186.176C201.254 182.868 212.104 178.2 216.979 168.664C219.844 163.06 222.787 157.107 222.398 150.825C222.04 145.035 218.897 139.837 215.843 134.904C213.276 130.76 210.644 126.538 206.894 123.423C200.496 118.108 191.458 116.524 185.611 110.608C182.232 107.188 176.863 106.354 172.175 107.418C167.486 108.482 163.341 111.172 159.472 114.027C137.291 130.392 120.573 154.035 112.537 180.402C111.961 182.29 111.481 184.514 112.665 186.092ZM305.834 124.572C308.007 121.45 312.911 122.537 316.147 124.537C319.383 126.536 322.869 129.242 326.554 128.298C306.43 107.886 279.472 94.3319 251.086 90.3525C243.738 89.3224 235.312 89.2578 230.03 94.4691C243.248 98.4337 256.466 102.398 269.684 106.363C271.423 106.884 273.259 107.467 274.45 108.837C276.543 111.246 275.795 114.907 276.377 118.045C277.215 122.568 281.015 126.089 285.262 127.858C289.509 129.627 294.198 129.942 298.79 130.235C300.385 130.336 302.164 130.38 303.37 129.329C304.727 128.145 304.805 126.051 305.834 124.572ZM301.821 104.538C303.056 101.837 301.943 98.5219 299.892 96.374C297.84 94.2261 295.027 93.0034 292.27 91.8979C287.436 89.9596 282.421 88.1907 277.216 88.0508C275.91 88.0157 274.475 88.1359 273.538 89.0456C272.602 89.9552 272.688 91.8895 273.938 92.2675C283.681 95.2146 293.066 99.3448 301.821 104.538ZM206.842 344.702C197.367 342.935 188.145 339.82 179.54 335.478C178.828 335.119 178.07 334.741 177.277 334.816C176.483 334.891 175.7 335.633 175.901 336.405C176.037 336.928 176.543 337.253 177.009 337.527C181.955 340.435 186.944 343.362 192.372 345.225C197.799 347.088 203.764 347.835 209.292 346.295C209.106 345.272 207.864 344.893 206.842 344.702ZM302.513 66.8821C301.769 65.7927 300.025 65.8716 298.994 66.6943C297.963 67.517 297.467 68.8212 297.016 70.0608C295.129 75.2438 293.243 80.4268 291.357 85.6098C291.184 86.0859 291.008 86.5832 291.064 87.0867C291.227 88.5495 293.303 89.0795 294.562 88.3176C295.822 87.5558 296.42 86.0764 296.936 84.6983C298.749 79.8644 300.561 75.0304 302.373 70.1965C302.778 69.1178 303.162 67.8336 302.513 66.8821V66.8821Z" fill="black"/>
</svg>
