<?xml version="1.0" encoding="UTF-8"?>
<svg xmlns="http://www.w3.org/2000/svg" version="1.1" viewBox="0 0 300 100">
  <defs>
    <style>
      .cls-1 {
        fill: #fff;
      }

      .cls-2 {
        isolation: isolate;
      }
    </style>
  </defs>
  <!-- Generator: Adobe Illustrator 28.7.1, SVG Export Plug-In . SVG Version: 1.2.0 Build 142)  -->
  <g>
    <g id="_레이어_1" data-name="레이어_1">
      <g id="_레이어_1-2" data-name="_레이어_1">
        <g>
          <g class="cls-2">
            <g class="cls-2">
              <path class="cls-1" d="M100.5,59.2l8.5,20.7h.3l8.5-20.7h7.8v30.5h-6.1v-19.9h-.3l-8,19.8h-4.2l-8-19.9h-.3v20h-6.1v-30.5h7.8Z"/>
              <path class="cls-1" d="M130.7,59.2h6.3v25.2h13.1v5.2h-19.4v-30.5Z"/>
              <path class="cls-1" d="M163.7,82.5h.3l7.4-23.2h7l-10.5,30.5h-8.1l-10.6-30.5h7.1l7.4,23.2Z"/>
              <path class="cls-1" d="M181.5,60.7c0-1.8,1.5-3.2,3.4-3.2s3.4,1.4,3.4,3.2-1.5,3.2-3.4,3.2-3.4-1.4-3.4-3.2ZM181.8,66.8h6.2v22.9h-6.2v-22.9Z"/>
            </g>
          </g>
          <path class="cls-1" d="M50.8,6.6v41.5c-.2-3-3.8-4.5-6-2.3L0,89.7v-41.6L44.8,4.1c2.3-2.2,6-.6,6,2.5Z"/>
          <path class="cls-1" d="M101.7,6.6v41.5c0-3-3.8-4.5-6-2.3l-44.8,44v-41.6L95.7,4.1c2.2-2.2,6-.6,6,2.5Z"/>
        </g>
      </g>
    </g>
  </g>
</svg>