<?xml version="1.0" encoding="UTF-8"?>
<svg id="_레이어_1" data-name="레이어_1" xmlns="http://www.w3.org/2000/svg" viewBox="0 0 300 100">
  <defs>
    <style>
      .cls-1 {
        fill: #fff;
      }

      .cls-2 {
        isolation: isolate;
      }
    </style>
  </defs>
  <g>
    <g>
      <g class="cls-2">
        <polygon class="cls-1" points="51.37 16.79 36.25 25.57 21.03 16.79 36.15 8 51.37 16.79"/>
        <polygon class="cls-1" points="71.21 28.24 56.09 37.02 40.87 28.24 55.99 19.45 71.21 28.24"/>
      </g>
      <polygon class="cls-1" points="51.41 39.74 36.29 48.53 21.07 39.75 36.19 30.96 51.41 39.74"/>
      <polygon class="cls-1" points="31.57 28.29 16.45 37.08 1.23 28.29 16.35 19.51 31.57 28.29"/>
    </g>
    <polygon class="cls-1" points="34.01 52.29 34.07 91.55 26.25 86.96 26.32 63.97 26.07 63.82 19.22 82.63 14.53 79.92 7.85 53.14 7.61 53 7.54 76.16 -.11 71.74 -.13 32.44 9.75 38.28 16.76 65.1 17.13 65.31 24.27 46.66 34.01 52.29"/>
    <polygon class="cls-1" points="73.41 33.48 73.44 60.11 67.12 63.76 66.15 64.32 50.03 46.97 57.92 42.42 67.09 52.87 67.04 37.15 73.41 33.48"/>
    <polygon class="cls-1" points="47.66 48.34 47.75 78.99 73.47 64.09 73.48 72.44 39.48 92 39.48 53.06 47.66 48.34"/>
  </g>
  <g>
    <path class="cls-1" d="M106.57,23.85l13.6,33.16h.58l13.6-33.16h15.35v52.65h-12.07v-32.73h-.44l-12.8,32.44h-7.85l-12.8-32.58h-.44v32.87h-12.07V23.85h15.35Z"/>
    <path class="cls-1" d="M157.7,23.85h12.36v42.54h22.11v10.11h-34.47V23.85Z"/>
    <path class="cls-1" d="M215.77,62.68h.44l12-38.84h13.82l-17.82,52.65h-16.44l-17.89-52.65h13.89l12,38.84Z"/>
    <path class="cls-1" d="M247.4,26.39c0-3.27,2.84-5.89,6.33-5.89s6.4,2.62,6.4,5.89-2.91,5.89-6.4,5.89-6.33-2.62-6.33-5.89ZM247.55,37.01h12.29v39.49h-12.29v-39.49Z"/>
  </g>
</svg>